<svg aria-hidden="true" style="position: absolute; width: 0; height: 0; overflow: hidden;" version="1.1" xmlns="http://www.w3.org/2000/svg" xmlns:xlink="http://www.w3.org/1999/xlink">
<defs>
<symbol id="icon-Lupe" viewBox="0 0 32 32">
<path fill="#d4dce2" style="fill: var(--color1, #d4dce2)" d="M31.551 28.047c0 0 0 0-0 0l-8.246-8.175c-0.98-0.972-1.091-2.492-0.568-3.77 0.565-1.38 0.861-2.869 0.861-4.404 0-3.125-1.227-6.062-3.456-8.272s-5.191-3.426-8.343-3.426c-3.152 0-6.114 1.217-8.343 3.426s-3.456 5.147-3.456 8.271 1.227 6.062 3.456 8.272c2.229 2.21 5.191 3.426 8.343 3.426 1.446 0 2.852-0.256 4.166-0.747 1.506-0.563 3.274-0.448 4.416 0.683l7.963 7.894c0.335 0.332 0.951 0.26 1.376-0.161l1.668-1.654c0.425-0.421 0.498-1.032 0.163-1.364 0 0 0 0 0 0zM11.8 20.227c-4.744 0-8.603-3.826-8.603-8.529s3.859-8.529 8.603-8.529c4.743 0 8.603 3.826 8.603 8.529s-3.859 8.529-8.603 8.529z"></path>
<path fill="#d4dce2" style="fill: var(--color1, #d4dce2)" d="M17.692 10.548c0 0 0 0 0 0h-2.366c-1.307 0-2.366-1.059-2.366-2.366v-2.325c0-0.305-0.249-0.552-0.556-0.552h-1.207c-0.307 0-0.556 0.247-0.556 0.552v1.323c0 1.86-1.508 3.368-3.369 3.368l-1.363-0c-0.308 0-0.557 0.247-0.557 0.552v1.197c0 0.305 0.249 0.552 0.557 0.552h1.363c1.86 0 3.368 1.508 3.368 3.368v1.323c0 0.305 0.249 0.552 0.556 0.552h1.207c0.307 0 0.556-0.247 0.556-0.552l-0-1.323c-0-1.86 1.508-3.369 3.368-3.369h1.363c0.307 0 0.556-0.247 0.556-0.552v-1.197c0-0.304-0.249-0.552-0.556-0.552v0z"></path>
</symbol>
<symbol id="icon-statistics" viewBox="0 0 35 32">
<path fill="#d4dce2" style="fill: var(--color1, #d4dce2)" d="M30.375 0.238c2.023-0.126 3.699 1.55 3.572 3.574l-0.354 5.614c-0.036 0.573-0.53 1.007-1.102 0.971s-1.006-0.53-0.969-1.102l0.049-0.775c0.106-1.666-1.904-2.579-3.089-1.404l-7.443 7.381c-0.815 0.808-2.128 0.813-2.949 0.012l-1.872-1.836c-1.315-1.29-3.422-1.284-4.73 0.013l-9.725 9.641c-0.653 0.647-1.762 0.185-1.762-0.734 0-0.276 0.11-0.54 0.306-0.735l11.173-11.070c1.308-1.296 3.413-1.301 4.728-0.013l0.977 0.957c1.315 1.289 3.421 1.282 4.729-0.014l5.061-5.017c1.191-1.181 0.283-3.208-1.392-3.105l-0.789 0.049c-0.566 0.035-1.054-0.396-1.088-0.962s0.395-1.053 0.961-1.088l5.709-0.356z"></path>
<path fill="#d4dce2" style="fill: var(--color1, #d4dce2)" d="M2.559 27.411c0-1.497 1.213-2.71 2.71-2.71s2.71 1.213 2.71 2.71v1.193c0 1.497-1.213 2.71-2.71 2.71s-2.71-1.213-2.71-2.71v-1.193z"></path>
<path fill="#d4dce2" style="fill: var(--color1, #d4dce2)" d="M10.064 22.453c0-1.497 1.213-2.71 2.71-2.71s2.71 1.213 2.71 2.71v6.154c0 1.497-1.213 2.71-2.71 2.71s-2.71-1.213-2.71-2.71v-6.154z"></path>
<path fill="#d4dce2" style="fill: var(--color1, #d4dce2)" d="M17.569 24.931c0-1.497 1.213-2.71 2.71-2.71s2.71 1.213 2.71 2.71v3.673c0 1.497-1.213 2.71-2.71 2.71s-2.71-1.213-2.71-2.71v-3.673z"></path>
<path fill="#d4dce2" style="fill: var(--color1, #d4dce2)" d="M25.072 18.734c0-1.497 1.213-2.71 2.71-2.71s2.71 1.213 2.71 2.71v9.874c0 1.497-1.213 2.71-2.71 2.71s-2.71-1.213-2.71-2.71v-9.874z"></path>
</symbol>
<symbol id="icon-Cart" viewBox="0 0 37 32">
<path fill="#d4dce2" style="fill: var(--color1, #d4dce2)" d="M18.689 15.050c0.343 0.34 0.801 0.529 1.259 0.529 0.496 0 0.954-0.189 1.259-0.529l5.912-6.164c0.648-0.681 0.648-1.815-0.076-2.458-0.686-0.681-1.831-0.643-2.479 0.076l-2.698 2.808c-1.045 1.087-2.785 1.083-3.824-0.009-0.648-0.681-1.793-0.719-2.479-0.076s-0.725 1.777-0.076 2.458l3.204 3.366z"></path>
<path fill="#d4dce2" style="fill: var(--color1, #d4dce2)" d="M34.9 5.332c0-0 0-0 0-0-0.953-0.227-1.907 0.34-2.098 1.286l-2.479 10.437c-0.305 1.324-1.488 2.231-2.861 2.231l-12.358 0c-1.373 0-2.594-0.983-2.861-2.307l-3.357-15.617c-0.191-0.794-0.877-1.361-1.716-1.361h-5.416c-0.954 0-1.755 0.794-1.755 1.74s0.801 1.74 1.755 1.74h1.379c1.509 0 2.813 1.054 3.129 2.53l2.51 11.726c0.648 2.912 3.28 5.067 6.293 5.067h12.32c3.013 0 5.569-2.004 6.255-4.916l2.479-10.437c0.305-0.946-0.305-1.891-1.22-2.118 0 0 0-0 0-0z"></path>
<path fill="#d4dce2" style="fill: var(--color1, #d4dce2)" d="M17.774 27.983c0 1.587-1.298 2.874-2.899 2.874s-2.899-1.287-2.899-2.874c0-1.587 1.298-2.874 2.899-2.874s2.899 1.287 2.899 2.874z"></path>
<path fill="#d4dce2" style="fill: var(--color1, #d4dce2)" d="M30.285 27.983c0 1.587-1.298 2.874-2.899 2.874s-2.899-1.287-2.899-2.874c0-1.587 1.298-2.874 2.899-2.874s2.899 1.287 2.899 2.874z"></path>
</symbol>
<symbol id="icon-Heart" viewBox="0 0 34 32">
<path fill="#d4dce2" style="fill: var(--color1, #d4dce2)" d="M9.893 0c-5.436 0-9.893 4.602-9.893 10.215 0 3.183 1.796 5.96 4.594 9.081s6.699 6.697 11.397 11.552c0.466 0.48 1.236 0.48 1.702 0 4.715-4.856 8.613-8.43 11.407-11.552s4.584-5.9 4.584-9.081c0-5.612-4.456-10.215-9.893-10.215-1.393 0-2.609 0.38-3.676 1.002-1.949 1.137-4.598 1.137-6.547 0-1.068-0.623-2.283-1.003-3.676-1.003h0.001zM9.893 2.481c2.646 0 4.526 1.667 5.919 4.061 0.46 0.791 1.603 0.79 2.064 0 1.394-2.393 3.269-4.061 5.915-4.061 4.119 0 7.486 3.471 7.486 7.734 0 2.207-1.289 4.428-3.945 7.394-1.982 2.214-4.803 4.93-8.070 8.187-1.335 1.331-3.503 1.329-4.836-0.003-3.259-3.256-6.075-5.97-8.059-8.184-2.66-2.968-3.959-5.19-3.959-7.394 0-4.263 3.366-7.734 7.486-7.734h-0.001z"></path>
</symbol>
</defs>
</svg>
